<svg width="128" height="32" viewBox="0 0 128 32" fill="none" xmlns="http://www.w3.org/2000/svg">
<g id="Group">
<path id="Vector" d="M31.9998 0H26.314V5.68583H31.9998V0Z" fill="#8C1843"/>
<path id="Vector_2" d="M15.1073 0.988955V16.0688V16.9203H15.9313H31.0111V31.1761H0.851501V0.988955H15.1073ZM15.9313 0.137451H0V32.0001H31.8626V16.0688H15.9313V0.137451Z" fill="#1C1C1D"/>
<g id="Group_2">
<g id="Group_3">
<path id="Vector_3" d="M42.2466 31.368V31.9173H38.9504V27.0281H42.2191V27.55H39.5273V29.0607H41.6697V29.5551H39.5273V31.3405H42.2466V31.368Z" fill="#1C1C1D"/>
<path id="Vector_4" d="M51.503 27.0281V31.9173H50.9536L48.7837 29.0058C48.3716 28.4289 48.0695 27.962 48.042 27.962C48.042 27.962 48.042 28.5663 48.042 29.3628V31.9173H47.5201V27.0281H48.0695L50.2395 29.9397C50.5965 30.4341 50.9536 30.956 50.9811 30.956C50.9811 30.956 50.9536 30.2967 50.9536 29.61V27.0281H51.503Z" fill="#1C1C1D"/>
<path id="Vector_5" d="M60.9241 31.1757C60.7044 31.4504 60.0726 31.9998 59.1387 31.9998C57.7379 31.9998 56.6117 30.9285 56.6117 29.4727C56.6117 27.9895 57.7379 26.9182 59.1387 26.9182C60.155 26.9457 60.9241 27.4401 61.3636 28.2092L60.7868 28.3465C60.4572 27.7972 59.8254 27.4676 59.1387 27.4676C58.0125 27.4676 57.1885 28.2641 57.1885 29.4452C57.1885 30.6264 58.04 31.4229 59.1662 31.4229C60.1276 31.4229 60.7593 30.8461 60.9516 30.4341V29.8298H59.4409V29.3628H61.446V31.8899H60.9516C60.9241 31.3405 60.9241 31.1757 60.9241 31.1757Z" fill="#1C1C1D"/>
<path id="Vector_6" d="M66.6925 31.8899V27.0281H67.2693V31.9173H66.6925V31.8899Z" fill="#1C1C1D"/>
<path id="Vector_7" d="M76.7456 27.0281V31.9173H76.2238L74.0538 29.0058C73.6418 28.4289 73.3396 27.962 73.3122 27.962C73.3122 27.962 73.3396 28.5663 73.3396 29.3628V31.9173H72.7628V27.0281H73.3122L75.4821 29.9397C75.8392 30.4341 76.1963 30.956 76.2238 30.956C76.2238 30.956 76.2238 30.2967 76.2238 29.61V27.0281H76.7456Z" fill="#1C1C1D"/>
<path id="Vector_8" d="M85.5083 31.368V31.9173H82.2122V27.0281H85.4808V27.55H82.789V29.0607H84.9315V29.5551H82.789V31.3405H85.5083V31.368Z" fill="#1C1C1D"/>
<path id="Vector_9" d="M94.078 31.368V31.9173H90.7819V27.0281H94.0505V27.55H91.3587V29.0607H93.5012V29.5551H91.3587V31.3405H94.078V31.368Z" fill="#1C1C1D"/>
<path id="Vector_10" d="M102.208 31.8899L101.11 30.0495C101.027 30.0495 100.945 30.0495 100.863 30.0495H99.9561V31.8624H99.3793V27.0281H100.863C102.016 27.0281 102.703 27.6324 102.703 28.5663C102.703 29.2804 102.318 29.7474 101.687 29.9671L102.868 31.9173H102.208V31.8899ZM100.89 29.5826C101.659 29.5826 102.071 29.1431 102.071 28.5663C102.071 27.9345 101.632 27.55 100.89 27.55H99.9286V29.5826H100.89Z" fill="#1C1C1D"/>
<path id="Vector_11" d="M107.977 31.8899V27.0281H108.553V31.9173H107.977V31.8899Z" fill="#1C1C1D"/>
<path id="Vector_12" d="M118.058 27.0281V31.9173H117.509L115.339 29.0058C114.927 28.4289 114.597 27.962 114.597 27.962C114.597 27.962 114.625 28.5663 114.625 29.3628V31.9173H114.048V27.0281H114.597L116.767 29.9397C117.152 30.4341 117.481 30.956 117.509 30.956C117.509 30.956 117.481 30.2967 117.481 29.61V27.0281H118.058Z" fill="#1C1C1D"/>
<path id="Vector_13" d="M127.452 31.1757C127.232 31.4504 126.6 31.9998 125.666 31.9998C124.266 31.9998 123.139 30.9285 123.139 29.4727C123.139 27.9895 124.266 26.9182 125.666 26.9182C126.683 26.9457 127.452 27.4401 127.891 28.2092L127.315 28.3465C126.985 27.7972 126.353 27.4676 125.666 27.4676C124.54 27.4676 123.716 28.2641 123.716 29.4452C123.716 30.6264 124.568 31.4229 125.694 31.4229C126.655 31.4229 127.287 30.8461 127.479 30.4341V29.8298H125.996V29.3628H127.974V31.8899H127.452C127.452 31.3405 127.479 31.1757 127.452 31.1757Z" fill="#1C1C1D"/>
</g>
</g>
<path id="Vector_14" d="M49.9366 0.824034C48.8653 0.49442 47.3271 0.329609 45.3769 0.329609H38.922V22.7433H43.8662V14.4481H45.5967C47.7666 14.4481 49.3598 14.2283 50.431 13.7339C51.4748 13.2669 52.2988 12.4704 52.8756 11.3991C53.4525 10.3279 53.7546 8.9545 53.7546 7.3339C53.7546 5.63089 53.3701 4.20257 52.6559 3.04893C51.9417 1.89528 51.0353 1.15365 49.9366 0.824034ZM47.9864 9.69613C47.6018 10.3279 46.7229 10.63 45.3769 10.63H43.8387V3.98283H45.3769C46.0911 3.98283 46.6679 4.06523 47.0525 4.20257C47.4645 4.33991 47.7941 4.66952 48.0962 5.19141C48.3984 5.7133 48.5357 6.39999 48.5357 7.2515C48.5907 8.24034 48.3984 9.06437 47.9864 9.69613ZM77.5417 0.357078L70.8121 22.7708H75.3443L76.443 18.1287H82.7606L83.8868 22.7708H88.9409L82.5409 0.357078H77.5417ZM77.3769 14.2833L79.5469 5.10901L81.8267 14.2833H77.3769ZM106.465 22.7708H111.41V0.357078H106.465V22.7708ZM127.203 12.8C126.709 11.8936 126.022 11.1794 125.198 10.6575C124.374 10.1356 123.221 9.61373 121.792 9.06437C120.199 8.43261 119.155 7.96566 118.661 7.58111C118.167 7.19656 117.919 6.70214 117.919 6.07038C117.919 5.52103 118.139 5.05407 118.551 4.64206C118.963 4.23004 119.54 4.0103 120.254 4.0103C121.792 4.0103 122.864 4.9442 123.44 6.78454L127.506 5.21888C126.544 1.73047 124.127 0 120.227 0C118.084 0 116.381 0.659227 115.09 1.92275C113.799 3.21373 113.14 4.8618 113.14 6.86695C113.14 8.04806 113.415 9.09184 113.964 10.0257C114.513 10.9322 115.2 11.6738 116.052 12.1682C116.903 12.6627 118.167 13.212 119.897 13.8438C121.243 14.3382 122.094 14.7777 122.452 15.2172C122.836 15.6566 123.001 16.1511 123.001 16.7004C123.001 17.4146 122.726 17.9914 122.204 18.4309C121.682 18.8704 120.968 19.0901 120.117 19.0901C118.249 19.0901 117.04 17.9639 116.519 15.7116L112.206 16.9476C113.332 21.0403 115.914 23.1004 119.979 23.1004C122.397 23.1004 124.319 22.4412 125.775 21.0953C127.231 19.7493 127.918 18.0463 127.918 15.9588C127.945 14.7502 127.698 13.7064 127.203 12.8ZM104.955 0.357078H100.23L97.4009 6.15278L94.7366 0.329609H89.243L94.7366 11.2618L89.655 20.7657L90.2318 22.7433H93.3082L96.9615 15.4369L100.23 22.7433H105.641L99.6533 10.4652L104.955 0.357078ZM69.6035 7.03176C69.6035 5.85064 69.3838 4.77939 68.9718 3.79055C68.5598 2.82918 67.9555 2.08755 67.2138 1.5382C66.4722 0.988842 65.7306 0.631758 65.0164 0.521886C64.3022 0.384547 63.231 0.329609 61.8576 0.329609H54.7984V22.7433H59.7426V13.8712H62.2147L65.2087 22.7433H69.4937L69.9331 21.2601L66.4447 12.9373C68.5598 11.8112 69.6035 9.83347 69.6035 7.03176ZM61.9125 10.273H59.7426V3.98283H61.7203C62.4619 3.98283 63.0113 4.06523 63.3958 4.23004C63.7804 4.39485 64.11 4.72446 64.3846 5.19141C64.6868 5.65836 64.8241 6.29013 64.8241 7.03176C64.7967 9.17425 63.8353 10.273 61.9125 10.273Z" fill="#8C1843"/>
<path id="Vector_15" d="M23.924 0.824034V7.22403V8.04806H24.7755H31.1755V13.5966H18.3755V0.796564H23.924M24.7755 0H17.5515V14.4755H32.027V7.2515H24.803V0H24.7755Z" fill="#1C1C1D"/>
</g>
</svg>
